<svg width="13" height="13" viewBox="0 0 13 13" fill="none" xmlns="http://www.w3.org/2000/svg">
<g id="clock " clip-path="url(#clip0_0_1752)">
<g id="Group">
<g id="Group_2">
<path id="Vector" d="M8.63776 7.55956L6.96463 6.30472V3.74858C6.96463 3.49156 6.75688 3.28381 6.49986 3.28381C6.24284 3.28381 6.0351 3.49156 6.0351 3.74858V6.53713C6.0351 6.68352 6.10388 6.82156 6.221 6.90894L8.08002 8.30321C8.16367 8.36595 8.26128 8.39617 8.35841 8.39617C8.50016 8.39617 8.63959 8.33249 8.73069 8.20979C8.88503 8.00481 8.84319 7.71341 8.63776 7.55956Z" fill="currentColor"/>
</g>
</g>
<g id="Group_3">
<g id="Group_4">
<path id="Vector_2" d="M6.5 0.5C3.1914 0.5 0.5 3.1914 0.5 6.5C0.5 9.8086 3.1914 12.5 6.5 12.5C9.8086 12.5 12.5 9.8086 12.5 6.5C12.5 3.1914 9.8086 0.5 6.5 0.5ZM6.5 11.5705C3.70449 11.5705 1.42951 9.29551 1.42951 6.5C1.42951 3.70449 3.70449 1.42951 6.5 1.42951C9.29598 1.42951 11.5705 3.70449 11.5705 6.5C11.5705 9.29551 9.29551 11.5705 6.5 11.5705Z" fill="currentColor"/>
</g>
</g>
</g>
<defs>
<clipPath id="clip0_0_1752">
<rect width="12" height="12" fill="white" transform="translate(0.5 0.5)"/>
</clipPath>
</defs>
</svg>
