<svg width="16" height="16" viewBox="0 0 16 16" fill="none" xmlns="http://www.w3.org/2000/svg">
<g clip-path="url(#clip0_0_89)">
<path d="M15.8812 0.64124C15.7427 0.486241 15.5243 0.444679 15.3434 0.523741L0.280984 7.11744C0.11411 7.19056 0.00442342 7.354 0.000360952 7.5365C-0.00370152 7.71868 0.0984852 7.88681 0.262234 7.96743L3.85877 9.73617L4.75501 15.113C4.78407 15.3171 4.94438 15.4811 5.15313 15.5108C5.30313 15.5324 5.45219 15.4796 5.55532 15.3733L8.39467 12.534L12.4465 15.4283C12.5765 15.5208 12.744 15.5411 12.8915 15.4827C13.0393 15.4242 13.1474 15.2946 13.1787 15.1386L15.9912 1.04499C16.019 0.905301 15.983 0.755614 15.8812 0.64124ZM4.23002 8.87399L1.5816 7.5715L12.0446 2.99122L4.23002 8.87399ZM5.69688 10.2674L5.26094 12.4471L4.79064 9.62523L10.5397 5.29745L5.82469 10.0284C5.75844 10.0946 5.71438 10.1809 5.69688 10.2674ZM5.98219 13.6205L6.47406 11.1621L7.62124 11.9815L5.98219 13.6205ZM12.4012 14.2436L6.87843 10.299L14.7681 2.3831L12.4012 14.2436Z" fill="currentColor"/>
</g>
<defs>
<clipPath id="clip0_0_89">
<rect width="16" height="16" fill="white"/>
</clipPath>
</defs>
</svg>
