<svg width="15" height="15" viewBox="0 0 15 15" fill="none" xmlns="http://www.w3.org/2000/svg">
<g clip-path="url(#clip0_0_1733)">
<path d="M14.7461 3.82986C14.5881 3.73221 14.3909 3.72329 14.2248 3.80629L10.7143 5.56181V4.28573C10.7143 3.39813 9.99473 2.67859 9.10713 2.67859H1.60714C0.719541 2.67859 0 3.39813 0 4.28573V10.7143C0 11.6019 0.719541 12.3214 1.60714 12.3214H9.10713C9.99473 12.3214 10.7143 11.6019 10.7143 10.7143V9.43822L14.2248 11.1964C14.4895 11.3287 14.8112 11.2214 14.9435 10.9567C14.9811 10.8814 15.0005 10.7984 15 10.7143V4.28573C15.0001 4.10003 14.904 3.92755 14.7461 3.82986ZM9.64285 10.7143C9.64285 11.0102 9.403 11.25 9.10713 11.25H1.60714C1.31126 11.25 1.07142 11.0102 1.07142 10.7143V4.28573C1.07142 3.98985 1.31126 3.75001 1.60714 3.75001H9.10713C9.403 3.75001 9.64285 3.98985 9.64285 4.28573V10.7143ZM13.9286 9.84754L10.7143 8.2404V6.75969L13.9286 5.15255V9.84754Z" fill="#4198C5"/>
<path d="M5.3571 5.35718C4.17362 5.35718 3.21423 6.31657 3.21423 7.50004C3.21423 8.68352 4.17362 9.64291 5.3571 9.64291C6.54058 9.64291 7.49997 8.68352 7.49997 7.50004C7.49997 6.31657 6.54055 5.35718 5.3571 5.35718ZM5.3571 8.57146C4.76538 8.57146 4.28568 8.09176 4.28568 7.50004C4.28568 6.90832 4.76538 6.42863 5.3571 6.42863C5.94882 6.42863 6.42852 6.90832 6.42852 7.50004C6.42852 8.09176 5.94882 8.57146 5.3571 8.57146Z" fill="#4198C5"/>
</g>
<defs>
<clipPath id="clip0_0_1733">
<rect width="15" height="15" fill="white"/>
</clipPath>
</defs>
</svg>
